# xmcd CD database file
#
# Track frame offsets:
#	150
#	23617
#	42524
#	70476
#	83334
#	93994
#	107132
#	118788
#	131335
#	146395
#	192573
#	218769
#	231267
#	242973
#	254684
#	267335
#	286354
#	301214
#
# Disc length: 4535 seconds
#
# Revision: 0
# Processed by: cddbd v1.5.2PL0 Copyright (c) Steve Scherf et al.
# Submitted via: CDex 1.51
#
DISCID=0811b512
DTITLE=B.B. KING - Ladies - Gentlemen...(Why I Sing The Blues 1967-1969)
DYEAR=2012
DGENRE=Blues
TTITLE0=Gambler's Blues(Live)
TTITLE1=Buzz Me(Live) 
TTITLE2=Sweet Sixteen(Parts 1-2)(Live)
TTITLE3=Think It Over
TTITLE4=I Done Got Wise
TTITLE5=Worried Dream
TTITLE6=Paying The Cost To Be The Boss
TTITLE7=I'm Gonna Do What They Do To Me
TTITLE8=Dance With Me
TTITLE9=Lucille
TTITLE10=Watch Yourself
TTITLE11=You Put It On Me
TTITLE12=Messy But Good
TTITLE13=Get Myself Somebody
TTITLE14=My Mood(Live)
TTITLE15=I Want You So Bad
TTITLE16=Get Off My Back Woman
TTITLE17=Why I Sing The Blues
EXTD=YEAR: 2012
EXTT0=
EXTT1=
EXTT2=
EXTT3=
EXTT4=
EXTT5=
EXTT6=
EXTT7=
EXTT8=
EXTT9=
EXTT10=
EXTT11=
EXTT12=
EXTT13=
EXTT14=
EXTT15=
EXTT16=
EXTT17=
PLAYORDER=
